<?xml version="1.0" encoding="utf-8"?>
<!-- Generator: Adobe Illustrator 22.0.0, SVG Export Plug-In . SVG Version: 6.00 Build 0)  -->
<svg version="1.1" xmlns="http://www.w3.org/2000/svg" xmlns:xlink="http://www.w3.org/1999/xlink" x="0px" y="0px"
	 viewBox="0 0 491.5 140.2" style="enable-background:new 0 0 491.5 140.2;" xml:space="preserve">
<style type="text/css">
	.st0{enable-background:new    ;}
	.st1{fill-rule:evenodd;clip-rule:evenodd;fill:#2E3664;}
	.st2{fill-rule:evenodd;clip-rule:evenodd;fill:#268E9C;}
</style>
<g id="preforensics_1_" class="st0">
	<g id="preforensics">
		<g>
			<path class="st1" d="M105.1,47.1c-1.8,1.9-3.2,5.2-4.5,10l-8.5,31.8L80.8,52c-1.5-5.2-4.6-7.7-9.5-7.7c-3,0-6,0.5-8.9,1.5
				l6.3,21.5l-8.8,22.9l-11.8-38c-1.8-5.3-5.6-8-11.2-8c-2.8,0-5.9,0.6-9.3,1.8l23,66h12.6l12.2-30.5L86.1,112H100l21.3-66
				c-3-1.2-6-1.8-9.1-1.8C109.3,44.2,106.9,45.2,105.1,47.1z M136.6,44.2c-1.1,0-2.4,0.1-3.7,0.2c-1.3,0.1-2.1,0.3-2.4,0.4v56.3
				c0,4,0.9,7,2.7,8.9c1.8,1.9,4.8,2.8,8.9,2.8c3.6,0,5.7-0.2,6.3-0.6V55.4C148.4,47.9,144.5,44.2,136.6,44.2z M138.9,12
				c-2.8,0-5.1,1-6.9,3c-1.8,2-2.7,4.4-2.7,7.3c0,2.9,0.9,5.3,2.7,7.2c1.8,1.9,4.1,2.9,6.9,2.9c2.7,0,5-1,6.8-2.9
				c1.8-1.9,2.8-4.3,2.8-7.2c0-2.9-0.9-5.3-2.8-7.3C143.9,13,141.7,12,138.9,12z M204.1,44.6c-1.8-1.2-4.2-1.8-7.3-1.8
				c-2.8,0-5.5,0.8-8.1,2.4c-2.6,1.6-4.7,3.7-6.4,6.2c-0.5-2.3-1.8-4.1-3.7-5.3c-2-1.2-4.4-1.8-7.4-1.8c-1.5,0-2.9,0.1-4.3,0.3
				l-1.6,0.3v66.5h17.9V68c0-2.3,0.9-4.4,2.8-6c1.9-1.7,4.1-2.5,6.8-2.5c1.8,0,3.5,0.3,5,0.9c1.5,0.6,3.1,1.7,4.7,3.2
				c0.8-1.4,1.5-3,2.2-4.7c0.7-1.7,1.2-3.4,1.6-5.1c0.4-1.6,0.6-3,0.6-4.2C206.8,47.4,205.9,45.8,204.1,44.6z M267.7,72.7
				c0-9.3-2.3-16.6-7-21.9c-4.7-5.3-11.3-7.9-19.9-7.9c-5.7,0-10.8,1.4-15.4,4.1c-4.6,2.7-8.2,6.6-10.8,11.7
				c-2.6,5.1-3.9,11.2-3.9,18.3c0,12,2.9,21.2,8.6,27.4c5.7,6.3,14,9.4,24.7,9.4c4,0,7.8-0.5,11.3-1.5c3.5-1,6.3-2.3,8.4-4
				c2.2-1.7,3.3-3.6,3.3-5.6c0-1.2-0.5-2.9-1.5-5c-1-2.1-2.2-4.1-3.5-5.8c-1.1,1-2.3,2.1-3.7,3.3c-1.4,1.2-3.1,2.2-5.2,3
				c-2.1,0.8-4.5,1.3-7.4,1.3c-5.2,0-9.2-1.5-12.1-4.6s-4.5-7.5-4.9-13.4h38.7C267.5,80.1,267.7,77.2,267.7,72.7z M228.5,70.8
				c0-4.7,1.1-8.4,3.2-11.1c2.1-2.7,5-4.1,8.7-4.1c7.4,0,11.2,5.1,11.2,15.2H228.5z"/>
		</g>
	</g>
</g>
<g id="preforensics_copy_1_" class="st0">
	<g id="preforensics_copy">
		<g>
			<path class="st2" d="M366.7,46.6c-3.2-2.5-7.6-3.7-13.1-3.7c-8.6,0-15.3,3.1-20,9.4c-1.4-3.2-3.4-5.6-6.1-7.1
				c-2.7-1.5-6.1-2.3-10.2-2.3c-8.9,0-15.3,2.9-19.3,8.7c-1-4.9-4.7-7.3-11.2-7.3c-1.5,0-2.9,0.1-4.3,0.3l-1.6,0.3v66.5h18V65.8
				c0-2.2,1-4,3-5.4c2-1.5,4.5-2.2,7.6-2.2c2.4,0,4.2,0.4,5.5,1.2c1.3,0.8,2.3,2,2.8,3.7c0.6,1.7,0.9,4.8,0.9,9.4v38.8h17.9v-39
				c0-2.9-0.1-5.7-0.4-8.3c0.9-1.5,2.4-2.8,4.5-3.8c2.1-1,4.2-1.5,6.3-1.5c2.3,0,4.1,0.4,5.3,1.2c1.3,0.8,2.1,2,2.6,3.7
				c0.5,1.6,0.7,4.6,0.7,8.9v38.8h17.9V71.7c0-5.6-0.3-10.5-0.9-14.5C371.8,52.6,369.9,49,366.7,46.6z M396.2,44.2
				c-1.1,0-2.4,0.1-3.7,0.2c-1.3,0.1-2.1,0.3-2.4,0.4v56.3c0,4,0.9,7,2.7,8.9c1.8,1.9,4.8,2.8,8.9,2.8c3.6,0,5.7-0.2,6.3-0.6V55.4
				C408.1,47.9,404.1,44.2,396.2,44.2z M398.6,12c-2.8,0-5.1,1-6.9,3c-1.8,2-2.7,4.4-2.7,7.3c0,2.9,0.9,5.3,2.7,7.2
				c1.8,1.9,4.1,2.9,6.9,2.9c2.7,0,5-1,6.8-2.9c1.8-1.9,2.8-4.3,2.8-7.2c0-2.9-0.9-5.3-2.8-7.3C403.6,13,401.3,12,398.6,12z
				 M463.1,99.5c-0.6-1.4-1.6-3.3-3.2-5.8c-1.3,1.4-2.9,2.6-4.7,3.5c-1.8,0.9-3.6,1.4-5.4,1.4c-5,0-7.5-3.3-7.5-9.8V58.7h18.4V44.4
				h-18.4v-9.8c0-7.5-3.9-11.3-11.8-11.3c-1.1,0-2.5,0.1-4.1,0.3l-2,0.3v65.3c0,5,0.5,9,1.4,12.1c2.8,8.2,9.2,12.2,19.1,12.2
				c3.3,0,6.4-0.4,9.3-1.3c2.8-0.9,5.2-2.1,7-3.7c1.8-1.6,2.8-3.3,2.8-5.1C463.9,102.2,463.7,100.9,463.1,99.5z"/>
		</g>
	</g>
</g>
</svg>
